<?xml version="1.0" encoding="UTF-8"?>
<svg version="1.1" xmlns="http://www.w3.org/2000/svg" width="128" height="128">
<path d="M0 0 C6.45119135 4.27341253 9.81399348 10.10214904 13.5 16.75 C14.09820557 17.80203613 14.69641113 18.85407227 15.31274414 19.93798828 C16.57827635 22.16381193 17.83867754 24.39255982 19.09423828 26.62402344 C21.55718834 30.98703566 24.06509562 35.32321402 26.57568359 39.65893555 C28.44216275 42.88305434 30.30185619 46.11100491 32.16015625 49.33984375 C34.49192436 53.38861368 36.82983862 57.43369126 39.17622375 61.47399902 C40.57399424 63.88107881 41.96979939 66.28929563 43.36550903 68.6975708 C44.35563915 70.40413021 45.34856851 72.10906455 46.34155273 73.81396484 C46.93782471 74.84344238 47.53409668 75.87291992 48.1484375 76.93359375 C48.67614746 77.84165771 49.20385742 78.74972168 49.74755859 79.68530273 C53.08279747 85.84931828 53.11408947 93.664276 51.38671875 100.38671875 C49.01451257 105.70589473 44.9011765 109.91067239 40 113 C34.57933896 114.88492179 29.79756176 115.29229446 24.08642578 115.2746582 C22.78984543 115.2823246 22.78984543 115.2823246 21.46707153 115.29014587 C18.62641359 115.30397861 15.78600001 115.30308979 12.9453125 115.30078125 C10.95905468 115.30467179 8.97279768 115.3090072 6.98654175 115.31376648 C2.82905375 115.32121522 -1.32834931 115.32094727 -5.48583984 115.31567383 C-10.79732022 115.30988259 -16.1084515 115.32680851 -21.41987419 115.3500185 C-25.52070121 115.36479485 -29.62144493 115.3656222 -33.72229385 115.36250877 C-35.67978735 115.36302007 -37.63728575 115.3682217 -39.59475327 115.37832069 C-42.33927436 115.39074292 -45.08312528 115.38385886 -47.82763672 115.37231445 C-48.62584839 115.37995819 -49.42406006 115.38760193 -50.24645996 115.39547729 C-57.03569192 115.33277824 -63.35339382 114.10525491 -68.75 109.8125 C-69.4925 108.884375 -70.235 107.95625 -71 107 C-71.46535156 106.46890625 -71.93070312 105.9378125 -72.41015625 105.390625 C-76.40344246 100.18489256 -76.87166775 95.12121493 -76.5859375 88.671875 C-75.52097019 81.99807984 -72.38389559 76.72045619 -69 71 C-67.98055857 69.23246946 -66.96242827 67.46418235 -65.9453125 65.6953125 C-63.59260226 61.62360261 -61.21742848 57.56596172 -58.828125 53.515625 C-55.56814345 47.98404273 -52.36285263 42.42278871 -49.17163086 36.85131836 C-44.33678231 28.41935723 -39.49690962 19.98729415 -34.4375 11.6875 C-34.06850586 11.06617188 -33.69951172 10.44484375 -33.31933594 9.8046875 C-25.78650102 -2.34106634 -12.75858387 -6.52814208 0 0 Z M-20 11 C-24.96213879 17.12688239 -28.62947638 24.43130222 -32.49069214 31.27404785 C-34.23804936 34.37029321 -35.99641847 37.4602785 -37.75390625 40.55078125 C-38.1095314 41.17669159 -38.46515656 41.80260193 -38.83155823 42.44747925 C-42.31843048 48.57671002 -45.87366043 54.66525214 -49.4375 60.75 C-50.57447967 62.70167094 -51.71120698 64.65348892 -52.84765625 66.60546875 C-54.83500806 70.016577 -56.84289751 73.41382841 -58.87109375 76.80078125 C-59.70620111 78.22107678 -60.54087136 79.64162945 -61.375 81.0625 C-61.93852173 81.98144043 -61.93852173 81.98144043 -62.51342773 82.91894531 C-64.93240083 87.089145 -65.44982848 90.21913063 -65 95 C-63.32960956 98.67485897 -61.45118836 100.90837069 -58 103 C-54.08997988 104.36638377 -50.03551371 104.15511841 -45.94604492 104.16113281 C-44.73308495 104.16858017 -44.73308495 104.16858017 -43.49562073 104.17617798 C-40.8238947 104.1907672 -38.15222805 104.19759625 -35.48046875 104.203125 C-33.61965433 104.20887919 -31.75883991 104.21463689 -29.89802551 104.22039795 C-25.99671147 104.23089876 -22.09541798 104.23674743 -18.1940918 104.24023438 C-13.20407193 104.24571669 -8.21432524 104.269743 -3.22439098 104.29820633 C0.6198556 104.31686393 4.46403678 104.32203998 8.30832481 104.32357025 C10.14746278 104.32659033 11.98659976 104.33459703 13.82569313 104.34775543 C16.40329179 104.3648811 18.98022828 104.36291989 21.55786133 104.35644531 C22.68887772 104.37026749 22.68887772 104.37026749 23.84274292 104.3843689 C28.9364417 104.34445002 32.47612509 103.38824436 37 101 C40.04052541 97.56966364 41.55457551 94.79419041 41.4309082 90.15087891 C40.43569579 85.18327474 37.41761137 80.8756261 34.875 76.5625 C34.24263428 75.46284912 33.61026855 74.36319824 32.95874023 73.23022461 C30.98751769 69.81117562 28.99557322 66.40488193 27 63 C25.82602662 60.97962916 24.65281756 58.95881395 23.48046875 56.9375 C21.19914576 53.00998214 18.90395493 49.09097779 16.6015625 45.17578125 C14.01158764 40.7590643 11.47436188 36.31589674 8.9609375 31.85546875 C7.94842434 30.06768331 6.93512979 28.28034301 5.92160034 26.49313354 C4.9607753 24.79122745 4.01064362 23.08329833 3.06079102 21.37524414 C2.47225342 20.33875732 1.88371582 19.30227051 1.27734375 18.234375 C0.76421631 17.31881836 0.25108887 16.40326172 -0.27758789 15.45996094 C-2.86212563 11.76870618 -5.58372849 9.46182767 -9.875 8.0625 C-13.87918027 7.98241639 -16.78578186 8.64785212 -20 11 Z " fill="#000000" transform="translate(76,8)"/>
<path d="M0 0 C3.71685444 0.61947574 4.68902283 1.57309075 7 4.5 C7.42578125 7.1015625 7.42578125 7.1015625 7.3125 10.125 C7.27511719 11.26453125 7.23773438 12.4040625 7.19921875 13.578125 C7.13347656 14.87234375 7.06773438 16.1665625 7 17.5 C6.94303377 19.03642243 6.88708782 20.57288295 6.83203125 22.109375 C6.76506821 23.69800429 6.69607345 25.2865493 6.625 26.875 C6.59446533 27.62346191 6.56393066 28.37192383 6.5324707 29.14306641 C6.27674637 33.87897562 5.46491478 37.98615688 4 42.5 C0.71303767 43.29953138 -0.71023192 43.59658936 -4 42.5 C-6.36674621 38.29781795 -6.43501908 33.83793035 -6.625 29.125 C-6.67756958 27.94429932 -6.67756958 27.94429932 -6.73120117 26.73974609 C-6.79849997 25.11968646 -6.86025527 23.49938718 -6.91650391 21.87890625 C-6.97053352 20.3395363 -7.03220201 18.80040742 -7.10302734 17.26171875 C-7.19511453 15.21616782 -7.25870233 13.17187339 -7.3125 11.125 C-7.34988281 9.94164062 -7.38726562 8.75828125 -7.42578125 7.5390625 C-7 4.5 -7 4.5 -5.16796875 2.1171875 C-3 0.5 -3 0.5 0 0 Z " fill="#000000" transform="translate(64,40.5)"/>
<path d="M0 0 C2.875 1 2.875 1 4.8125 2.625 C6.35600034 6.07517724 5.80833407 8.39999716 4.875 12 C1.38375983 14.32749345 -0.01722251 14.50299316 -4.125 14 C-7.21384321 11.88658096 -7.99608765 10.68753254 -8.6875 7 C-8.125 4 -8.125 4 -6 1.5625 C-3.125 0 -3.125 0 0 0 Z " fill="#000000" transform="translate(65.125,87)"/>
</svg>
